<?xml version="1.0" encoding="utf-8"?>
<svg xmlns="http://www.w3.org/2000/svg" xmlns:xlink="http://www.w3.org/1999/xlink" style="margin: auto; background: none; display: block; shape-rendering: auto;" width="201px" height="201px" viewBox="0 0 100 100" preserveAspectRatio="xMidYMid">
<g transform="rotate(0 50 50)">
  <rect x="48.5" y="32.5" rx="1.26" ry="1.26" width="3" height="9" fill="#8395cf">
    <animate attributeName="opacity" values="1;0" keyTimes="0;1" dur="0.6896551724137931s" begin="-0.6366047745358091s" repeatCount="indefinite"></animate>
  </rect>
</g><g transform="rotate(27.692307692307693 50 50)">
  <rect x="48.5" y="32.5" rx="1.26" ry="1.26" width="3" height="9" fill="#bfccf3">
    <animate attributeName="opacity" values="1;0" keyTimes="0;1" dur="0.6896551724137931s" begin="-0.583554376657825s" repeatCount="indefinite"></animate>
  </rect>
</g><g transform="rotate(55.38461538461539 50 50)">
  <rect x="48.5" y="32.5" rx="1.26" ry="1.26" width="3" height="9" fill="#da8fa7">
    <animate attributeName="opacity" values="1;0" keyTimes="0;1" dur="0.6896551724137931s" begin="-0.5305039787798409s" repeatCount="indefinite"></animate>
  </rect>
</g><g transform="rotate(83.07692307692308 50 50)">
  <rect x="48.5" y="32.5" rx="1.26" ry="1.26" width="3" height="9" fill="#fdd3e0">
    <animate attributeName="opacity" values="1;0" keyTimes="0;1" dur="0.6896551724137931s" begin="-0.4774535809018568s" repeatCount="indefinite"></animate>
  </rect>
</g><g transform="rotate(110.76923076923077 50 50)">
  <rect x="48.5" y="32.5" rx="1.26" ry="1.26" width="3" height="9" fill="#8395cf">
    <animate attributeName="opacity" values="1;0" keyTimes="0;1" dur="0.6896551724137931s" begin="-0.42440318302387275s" repeatCount="indefinite"></animate>
  </rect>
</g><g transform="rotate(138.46153846153845 50 50)">
  <rect x="48.5" y="32.5" rx="1.26" ry="1.26" width="3" height="9" fill="#bfccf3">
    <animate attributeName="opacity" values="1;0" keyTimes="0;1" dur="0.6896551724137931s" begin="-0.37135278514588865s" repeatCount="indefinite"></animate>
  </rect>
</g><g transform="rotate(166.15384615384616 50 50)">
  <rect x="48.5" y="32.5" rx="1.26" ry="1.26" width="3" height="9" fill="#da8fa7">
    <animate attributeName="opacity" values="1;0" keyTimes="0;1" dur="0.6896551724137931s" begin="-0.31830238726790455s" repeatCount="indefinite"></animate>
  </rect>
</g><g transform="rotate(193.84615384615384 50 50)">
  <rect x="48.5" y="32.5" rx="1.26" ry="1.26" width="3" height="9" fill="#fdd3e0">
    <animate attributeName="opacity" values="1;0" keyTimes="0;1" dur="0.6896551724137931s" begin="-0.26525198938992045s" repeatCount="indefinite"></animate>
  </rect>
</g><g transform="rotate(221.53846153846155 50 50)">
  <rect x="48.5" y="32.5" rx="1.26" ry="1.26" width="3" height="9" fill="#8395cf">
    <animate attributeName="opacity" values="1;0" keyTimes="0;1" dur="0.6896551724137931s" begin="-0.21220159151193638s" repeatCount="indefinite"></animate>
  </rect>
</g><g transform="rotate(249.23076923076923 50 50)">
  <rect x="48.5" y="32.5" rx="1.26" ry="1.26" width="3" height="9" fill="#bfccf3">
    <animate attributeName="opacity" values="1;0" keyTimes="0;1" dur="0.6896551724137931s" begin="-0.15915119363395228s" repeatCount="indefinite"></animate>
  </rect>
</g><g transform="rotate(276.9230769230769 50 50)">
  <rect x="48.5" y="32.5" rx="1.26" ry="1.26" width="3" height="9" fill="#da8fa7">
    <animate attributeName="opacity" values="1;0" keyTimes="0;1" dur="0.6896551724137931s" begin="-0.10610079575596819s" repeatCount="indefinite"></animate>
  </rect>
</g><g transform="rotate(304.61538461538464 50 50)">
  <rect x="48.5" y="32.5" rx="1.26" ry="1.26" width="3" height="9" fill="#fdd3e0">
    <animate attributeName="opacity" values="1;0" keyTimes="0;1" dur="0.6896551724137931s" begin="-0.053050397877984094s" repeatCount="indefinite"></animate>
  </rect>
</g><g transform="rotate(332.3076923076923 50 50)">
  <rect x="48.5" y="32.5" rx="1.26" ry="1.26" width="3" height="9" fill="#8395cf">
    <animate attributeName="opacity" values="1;0" keyTimes="0;1" dur="0.6896551724137931s" begin="0s" repeatCount="indefinite"></animate>
  </rect>
</g>
<!-- [ldio] generated by https://loading.io/ --></svg>